<?xml version="1.0" encoding="UTF-8" standalone="no"?>
<svg width="600" height="600" viewBox="0 0 600 600" xmlns="http://www.w3.org/2000/svg">
  <defs>
    <pattern id="hexagons" width="100" height="100" patternUnits="userSpaceOnUse" patternTransform="scale(0.5)">
      <path 
        d="M45.99,0 L13.99,0 L-2.01,27.73 L13.99,55.47 L45.99,55.47 L61.99,27.73 L45.99,0" 
        fill="none" 
        stroke="#4D9DE0" 
        stroke-width="1" 
        stroke-opacity="0.1" 
        transform="translate(50,50)" />
      <path 
        d="M45.99,0 L13.99,0 L-2.01,27.73 L13.99,55.47 L45.99,55.47 L61.99,27.73 L45.99,0" 
        fill="none" 
        stroke="#78C091" 
        stroke-width="1" 
        stroke-opacity="0.1" 
        transform="translate(110,77.73)" />
      <path 
        d="M45.99,0 L13.99,0 L-2.01,27.73 L13.99,55.47 L45.99,55.47 L61.99,27.73 L45.99,0" 
        fill="none" 
        stroke="#4D9DE0" 
        stroke-width="1" 
        stroke-opacity="0.1" 
        transform="translate(50,105.46)" />
      <path 
        d="M45.99,0 L13.99,0 L-2.01,27.73 L13.99,55.47 L45.99,55.47 L61.99,27.73 L45.99,0" 
        fill="none" 
        stroke="#78C091" 
        stroke-width="1" 
        stroke-opacity="0.1" 
        transform="translate(-10,77.73)" />
    </pattern>
  </defs>
  <rect width="100%" height="100%" fill="url(#hexagons)" />
</svg> 